# xmcd
#
# Track frame offsets:
#	150
#	11332
#	22812
#	36227
#	50512
#	62457
#	74705
#	87507
#	99527
#	111417
#	125800
#	140120
#	155845
#	169435
#	181880
#	194107
#	208835
#	221057
#	234660
#	247572
#	260540
#	274940
#	288227
#	301692
#	313997
#
# Disc length: 4352 seconds
#
# Revision: 4
# Processed by: cddbd v1.4PL0 Copyright (c) Steve Scherf et al.
# Submitted via: CDmax 1.8
#
DISCID=8510fe19
DTITLE=various_artists - String Bands (1926-1929)
DYEAR=1900
DGENRE=
TTITLE0=Broken Bed Blues
TTITLE1=String Band Blues
TTITLE2=Surprised Blues
TTITLE3=Black Cat Blues
TTITLE4=Gray Eagle
TTITLE5=Forked Deer
TTITLE6=Soldier Joy
TTITLE7=Maxwell Girl
TTITLE8=Camp Nelson Blues
TTITLE9=G Rag
TTITLE10=Bamalong Blues
TTITLE11=K.C. Railroad Blues
TTITLE12=The Moore Girl
TTITLE13=Georgia Stomp
TTITLE14=Forty Drops
TTITLE15=It Tickles Me
TTITLE16=Dance The Georgia Poss
TTITLE17=Somethin' Doin'
TTITLE18=Easy Winner
TTITLE19=Nothin' Doin'
TTITLE20=Prater Blues
TTITLE21=Travelin' Railroad Man Blues
TTITLE22=Sittin' On Top Of The World
TTITLE23=The New Talkin' Bout You
TTITLE24=Lawdy Lawdy Blues
EXTD=
EXTT0=
EXTT1=
EXTT2=
EXTT3=
EXTT4=
EXTT5=
EXTT6=
EXTT7=
EXTT8=
EXTT9=
EXTT10=
EXTT11=
EXTT12=
EXTT13=
EXTT14=
EXTT15=
EXTT16=
EXTT17=
EXTT18=
EXTT19=
EXTT20=
EXTT21=
EXTT22=
EXTT23=
EXTT24=
PLAYORDER=
